<svg version="1.1" preserveAspectRatio="none" xmlns="http://www.w3.org/2000/svg" width="500" height="500" viewBox="0 0 500 500"><rect width="100%" height="100%" fill="#F1F1F1" fill-opacity="1"/><svg viewBox="181.8529 535.8541 333.5193 215.4643" width="333" height="215.12881533392522" x="83.5px" y="142.4356px" xmlns="http://www.w3.org/2000/svg" xmlns:xlink="http://www.w3.org/1999/xlink" preserveAspectRatio="none"><defs></defs><style>.companyName {fill:#3B3B6B;fill-opacity:1;}.icon1 {fill:#D24848;fill-opacity:1;}.icon2 {fill:#CCAF60;fill-opacity:1;}.icon3 {fill:#797468;fill-opacity:1;}.icon3-str {stroke:#797468;stroke-opacity:1;}</style><g opacity="1" transform="rotate(0 181.8529 651.3184)">
<svg width="333.5193" height="100" x="181.8529" y="651.3184" version="1.1" preserveAspectRatio="none" viewBox="3.76 -28 120.2 36.04">
  <g transform="matrix(1 0 0 1 0 0)" class="companyName"><path id="id-D6z1nYkh5" d="M34.40 0L29.48 0L29.44-18.56L20.24-3.20L17.92-3.20L8.72-18.32L8.72 0L3.76 0L3.76-28L8.04-28L19.16-9.44L30.08-28L34.36-28L34.40 0Z M43.08 0.28Q41.72 0.28 40.76-0.66Q39.80-1.60 39.80-3.04L39.80-3.04Q39.80-4.52 40.74-5.44Q41.68-6.36 43.08-6.36L43.08-6.36Q44.48-6.36 45.42-5.44Q46.36-4.52 46.36-3.04L46.36-3.04Q46.36-1.60 45.40-0.66Q44.44 0.28 43.08 0.28L43.08 0.28Z M71.24 0L61.36-11.72L56.92-7.16L56.92 0L51.72 0L51.72-28L56.92-28L56.92-13.64L70.76-28L76.60-28L64.84-15.48L77.32 0L71.24 0Z M99.56-10.56Q99.56-10.04 99.48-9.08L99.48-9.08L82.72-9.08Q83.16-6.72 85.02-5.34Q86.88-3.96 89.64-3.96L89.64-3.96Q93.16-3.96 95.44-6.28L95.44-6.28L98.12-3.20Q96.68-1.48 94.48-0.60Q92.28 0.28 89.52 0.28L89.52 0.28Q86 0.28 83.32-1.12Q80.64-2.52 79.18-5.02Q77.72-7.52 77.72-10.68L77.72-10.68Q77.72-13.80 79.14-16.30Q80.56-18.80 83.08-20.20Q85.60-21.60 88.76-21.60L88.76-21.60Q91.88-21.60 94.34-20.22Q96.80-18.84 98.18-16.34Q99.56-13.84 99.56-10.56L99.56-10.56ZM88.76-17.60Q86.36-17.60 84.70-16.18Q83.04-14.76 82.68-12.40L82.68-12.40L94.80-12.40Q94.48-14.72 92.84-16.16Q91.20-17.60 88.76-17.60L88.76-17.60Z M119.16-21.36L123.96-21.36L113.96 1.72Q112.56 5.20 110.56 6.62Q108.56 8.04 105.72 8.04L105.72 8.04Q104.12 8.04 102.56 7.52Q101.00 7 100.00 6.08L100.00 6.08L102.00 2.40Q102.72 3.08 103.70 3.48Q104.68 3.88 105.68 3.88L105.68 3.88Q107 3.88 107.86 3.20Q108.72 2.52 109.44 0.92L109.44 0.92L109.80 0.08L100.48-21.36L105.68-21.36L112.40-5.56L119.16-21.36Z"/></g>
</svg>
</g><g opacity="1" transform="rotate(0 265.2328 535.8541)">
<svg width="166.7596" height="85.4643" x="265.2328" y="535.8541" version="1.1" preserveAspectRatio="none" viewBox="20 59 160 82">
  <g transform="matrix(1 0 0 1 0 0)" ><g><path d="M96.5 141H68.7l-16.4-29 13.9-24.6L96.5 141z" data-color="1" class="icon1"></path><path d="M48.7 141H20l46.9-82h28.7l-46.9 82z" data-color="2" class="icon2"></path><path d="M97.6 141H68.9l46.9-82h28.7l-46.9 82z" data-color="3" class="icon3"></path><path d="M180 141h-28.8l-16.9-29 14.4-24.6L180 141z" data-color="1" class="icon1"></path></g></g>
</svg>
</g></svg></svg>